<svg width="50" height="55" viewBox="0 0 50 55" fill="none" xmlns="http://www.w3.org/2000/svg">
<path d="M47.4305 4.58333C36.736 0 24.5138 0 24.5138 0C24.5138 0 12.2916 0 1.59715 4.58333C-2.98618 27.5 1.59715 47.3611 24.5138 55C47.4305 47.3611 52.0138 27.5 47.4305 4.58333Z" fill="#666666"/>
<path d="M24.5138 51.7672C6.80993 45.4193 0.0097909 30.2973 4.28604 6.78943C13.9156 3.09985 24.4038 3.05554 24.5138 3.05554C24.6223 3.05554 35.1441 3.11665 44.7416 6.78943C49.0178 30.2973 42.2177 45.4193 24.5138 51.7672Z" fill="#353535"/>
<path d="M44.7416 6.78943C35.1441 3.11665 24.6223 3.05554 24.5138 3.05554V51.7672C42.2177 45.4193 49.0179 30.2973 44.7416 6.78943Z" fill="#151515"/>
</svg>
