<svg width="90" height="90" viewBox="0 0 90 90" fill="none" xmlns="http://www.w3.org/2000/svg">
<g opacity="0.5">
<rect width="90" height="90" rx="10" fill="#01B580" fill-opacity="0.6"/>
<path d="M67.4305 22.5833C56.736 18 44.5138 18 44.5138 18C44.5138 18 32.2916 18 21.5972 22.5833C17.0138 45.5 21.5972 65.3611 44.5138 73C67.4305 65.3611 72.0138 45.5 67.4305 22.5833Z" fill="#666666"/>
<path d="M44.5138 69.7673C26.8099 63.4194 20.0098 48.2975 24.286 24.7896C33.9156 21.1 44.4038 21.0557 44.5138 21.0557C44.6223 21.0557 55.1441 21.1168 64.7416 24.7896C69.0178 48.2975 62.2177 63.4194 44.5138 69.7673Z" fill="#353535"/>
<path d="M64.7416 24.7896C55.1441 21.1168 44.6223 21.0557 44.5138 21.0557V69.7673C62.2177 63.4194 69.0179 48.2975 64.7416 24.7896Z" fill="#151515"/>
<path d="M67.4305 22.5833C56.736 18 44.5138 18 44.5138 18C44.5138 18 32.2916 18 21.5972 22.5833C17.0138 45.5 21.5972 65.3611 44.5138 73C67.4305 65.3611 72.0138 45.5 67.4305 22.5833Z" fill="#666666"/>
<path d="M44.5138 69.7673C26.8099 63.4194 20.0098 48.2975 24.286 24.7896C33.9156 21.1 44.4038 21.0557 44.5138 21.0557C44.6223 21.0557 55.1441 21.1168 64.7416 24.7896C69.0178 48.2975 62.2177 63.4194 44.5138 69.7673Z" fill="#353535"/>
<path d="M64.7416 24.7896C55.1441 21.1168 44.6223 21.0557 44.5138 21.0557V69.7673C62.2177 63.4194 69.0179 48.2975 64.7416 24.7896Z" fill="#151515"/>
</g>
</svg>
