<svg width="25" height="25" viewBox="0 0 25 25" fill="none" xmlns="http://www.w3.org/2000/svg">
<path d="M11.5625 0C6.28875 0.005 3.56125 0.1 1.83 1.83C0.1 3.5625 0.005 6.28875 0 11.5625H6.1425C5.69303 11.0015 5.37023 10.35 5.19625 9.6525C4.525 6.9625 6.9625 4.525 9.6525 5.19625C10.3675 5.375 11.015 5.70375 11.5625 6.1425V0ZM0 13.4375C0.005 18.71 0.1 21.4375 1.83 23.1688C3.5625 24.9 6.28875 24.9937 11.5625 25V15.1538C11.0695 16.1406 10.3112 16.9705 9.37288 17.5505C8.43453 18.1306 7.35314 18.4377 6.25 18.4375C6.00136 18.4375 5.7629 18.3387 5.58709 18.1629C5.41127 17.9871 5.3125 17.7486 5.3125 17.5C5.3125 17.2514 5.41127 17.0129 5.58709 16.8371C5.7629 16.6613 6.00136 16.5625 6.25 16.5625C7.16453 16.5625 8.05231 16.254 8.76979 15.6869C9.48727 15.1198 9.99249 14.3273 10.2038 13.4375H0ZM13.4375 25C18.71 24.9937 21.4375 24.9 23.1688 23.1688C24.9 21.4387 24.9937 18.71 25 13.4375H14.7962C15.0075 14.3273 15.5127 15.1198 16.2302 15.6869C16.9477 16.254 17.8355 16.5625 18.75 16.5625C18.9986 16.5625 19.2371 16.6613 19.4129 16.8371C19.5887 17.0129 19.6875 17.2514 19.6875 17.5C19.6875 17.7486 19.5887 17.9871 19.4129 18.1629C19.2371 18.3387 18.9986 18.4375 18.75 18.4375C17.6469 18.4377 16.5655 18.1306 15.6271 17.5505C14.6888 16.9705 13.9305 16.1406 13.4375 15.1538V25ZM25 11.5625C24.9937 6.28875 24.9 3.56125 23.1688 1.83C21.4387 0.1 18.71 0.005 13.4375 0V6.1425C13.9981 5.69322 14.6492 5.37044 15.3463 5.19625C18.0375 4.52375 20.4762 6.96125 19.8025 9.6525C19.6289 10.3499 19.3065 11.0014 18.8575 11.5625H25Z" fill="white"/>
<path d="M9.19751 7.01644C9.87287 7.1851 10.4725 7.57467 10.901 8.12323C11.3295 8.67179 11.5623 9.34785 11.5625 10.0439V11.5627H10.0438C9.34767 11.5625 8.67161 11.3297 8.12305 10.9012C7.57449 10.4726 7.18492 9.87305 7.01626 9.19769C6.94133 8.89641 6.94559 8.58086 7.02864 8.2817C7.1117 7.98255 7.27072 7.70996 7.49025 7.49043C7.70979 7.2709 7.98237 7.11188 8.28152 7.02882C8.58068 6.94577 8.89623 6.94151 9.19751 7.01644ZM13.4375 10.0439V11.5627H14.9563C16.3875 11.5627 17.6363 10.5877 17.9838 9.19769C18.0588 8.89628 18.0546 8.58058 17.9714 8.28129C17.8883 7.982 17.7292 7.70931 17.5095 7.48973C17.2898 7.27016 17.017 7.11117 16.7177 7.02824C16.4183 6.9453 16.1026 6.94124 15.8013 7.01644C15.1261 7.18534 14.5268 7.57501 14.0986 8.12355C13.6703 8.67209 13.4376 9.34802 13.4375 10.0439Z" fill="white"/>
</svg>
