<svg width="25" height="25" viewBox="0 0 25 25" fill="none" xmlns="http://www.w3.org/2000/svg">
<path d="M6.25001 15.625C5.91849 15.625 5.60054 15.7567 5.36612 15.9911C5.1317 16.2255 5.00001 16.5435 5.00001 16.875V19.1025C3.38886 17.2805 2.49968 14.9322 2.50001 12.5C2.49947 12.1324 2.52117 11.765 2.56501 11.4C2.58886 11.2351 2.57951 11.0671 2.5375 10.9059C2.49549 10.7447 2.42168 10.5935 2.3204 10.4612C2.21912 10.3289 2.09242 10.2182 1.94774 10.1356C1.80306 10.053 1.64333 10.0001 1.47793 9.98011C1.31252 9.96011 1.14479 9.97338 0.984595 10.0191C0.824396 10.0649 0.67496 10.1422 0.545071 10.2465C0.415182 10.3509 0.307461 10.4801 0.22824 10.6267C0.149019 10.7733 0.0998977 10.9342 0.0837619 11.1C0.0273044 11.5645 -0.000664576 12.0321 1.19847e-05 12.5C0.0017178 15.4827 1.07378 18.3658 3.02126 20.625H1.25001C0.918491 20.625 0.600549 20.7567 0.366128 20.9911C0.131708 21.2255 1.19847e-05 21.5435 1.19847e-05 21.875C1.19847e-05 22.2065 0.131708 22.5245 0.366128 22.7589C0.600549 22.9933 0.918491 23.125 1.25001 23.125H6.25001C6.44549 23.1225 6.63754 23.0733 6.81018 22.9815C6.98281 22.8898 7.13103 22.7581 7.2425 22.5975C7.25625 22.5788 7.275 22.5638 7.28875 22.5438C7.2975 22.5313 7.2975 22.5163 7.305 22.5037C7.36454 22.4032 7.40917 22.2946 7.4375 22.1813C7.45626 22.1175 7.46964 22.0523 7.4775 21.9863C7.48125 21.9488 7.5 21.915 7.5 21.875V16.875C7.5 16.5435 7.36831 16.2255 7.13389 15.9911C6.89947 15.7567 6.58153 15.625 6.25001 15.625ZM8.125 5.00002H5.89626C7.71869 3.38878 10.0674 2.49961 12.5 2.50002C12.8677 2.49921 13.2351 2.52134 13.6 2.56627C13.9294 2.60605 14.261 2.51337 14.5221 2.3086C14.7831 2.10383 14.9521 1.80376 14.9919 1.4744C15.0317 1.14503 14.939 0.813352 14.7342 0.552325C14.5294 0.291298 14.2294 0.122305 13.9 0.0825224C13.4354 0.0266498 12.9679 -0.000901068 12.5 2.24659e-05C9.51727 0.00172828 6.6342 1.07379 4.37501 3.02127V1.25002C4.37501 0.918501 4.24331 0.600559 4.00889 0.366139C3.77447 0.131718 3.45653 2.24659e-05 3.12501 2.24659e-05C2.79349 2.24659e-05 2.47555 0.131718 2.24113 0.366139C2.00671 0.600559 1.87501 0.918501 1.87501 1.25002V6.25002C1.88272 6.33274 1.89906 6.41444 1.92376 6.49377C1.9539 6.648 2.01376 6.7949 2.10001 6.92627L2.11501 6.94752C2.19746 7.06744 2.30076 7.17159 2.42001 7.25502C2.43376 7.26502 2.44126 7.28002 2.45501 7.29002C2.47251 7.30252 2.49251 7.30627 2.51126 7.31627C2.58242 7.35897 2.65782 7.39416 2.73626 7.42127C2.84152 7.45797 2.95127 7.48026 3.06251 7.48752C3.08501 7.48752 3.10251 7.50001 3.12501 7.50001H8.125C8.45652 7.50001 8.77447 7.36832 9.00889 7.1339C9.24331 6.89948 9.375 6.58154 9.375 6.25002C9.375 5.9185 9.24331 5.60055 9.00889 5.36613C8.77447 5.13171 8.45652 5.00002 8.125 5.00002ZM23.075 18.505C23.0448 18.3512 22.9849 18.2047 22.8987 18.0738L22.885 18.0525C22.8022 17.9325 22.6984 17.8283 22.5787 17.745C22.565 17.735 22.5587 17.72 22.5437 17.71C22.5312 17.7013 22.515 17.7013 22.5012 17.6925C22.3426 17.6041 22.1688 17.5464 21.9887 17.5225C21.9487 17.5188 21.915 17.5 21.875 17.5H16.875C16.5435 17.5 16.2255 17.6317 15.9911 17.8661C15.7567 18.1005 15.625 18.4185 15.625 18.75C15.625 19.0815 15.7567 19.3995 15.9911 19.6339C16.2255 19.8683 16.5435 20 16.875 20H19.1025C17.2804 21.6111 14.9322 22.5002 12.5 22.5C12.1323 22.5004 11.7649 22.4779 11.4 22.4325C11.0706 22.3927 10.739 22.4854 10.4779 22.6902C10.2169 22.8949 10.0479 23.195 10.0081 23.5244C9.96835 23.8537 10.061 24.1854 10.2658 24.4464C10.4706 24.7075 10.7706 24.8765 11.1 24.9162C11.5646 24.9721 12.0321 25.0001 12.5 25C15.4827 24.9983 18.3658 23.9262 20.625 21.9788V23.75C20.625 24.0815 20.7567 24.3995 20.9911 24.6339C21.2255 24.8683 21.5435 25 21.875 25C22.2065 25 22.5245 24.8683 22.7589 24.6339C22.9933 24.3995 23.125 24.0815 23.125 23.75V18.75C23.1169 18.6672 23.1001 18.5843 23.075 18.505ZM23.75 4.37502C24.0815 4.37502 24.3995 4.24332 24.6339 4.0089C24.8683 3.77448 25 3.45654 25 3.12502C25 2.7935 24.8683 2.47556 24.6339 2.24114C24.3995 2.00672 24.0815 1.87502 23.75 1.87502H18.75C18.6685 1.88297 18.5881 1.89931 18.51 1.92377L18.5012 1.92502C18.3497 1.95566 18.2054 2.01507 18.0762 2.10002L18.0512 2.11627C17.9318 2.19886 17.8281 2.30215 17.745 2.42127C17.735 2.43377 17.72 2.44127 17.71 2.45502C17.7012 2.46752 17.7012 2.48377 17.6925 2.49752C17.6034 2.65718 17.5457 2.83241 17.5225 3.01377C17.5187 3.05127 17.5 3.08502 17.5 3.12502V8.12501C17.5 8.45653 17.6317 8.77448 17.8661 9.0089C18.1005 9.24332 18.4185 9.37501 18.75 9.37501C19.0815 9.37501 19.3995 9.24332 19.6339 9.0089C19.8683 8.77448 20 8.45653 20 8.12501V5.89627C21.6111 7.71877 22.5003 10.0675 22.5 12.5C22.5001 12.8677 22.478 13.235 22.4337 13.6C22.3942 13.929 22.4868 14.2602 22.6911 14.521C22.8954 14.7818 23.1949 14.9509 23.5237 14.9913C23.5744 14.9972 23.6253 15.0001 23.6762 15C23.9814 14.9995 24.2758 14.8873 24.504 14.6847C24.7322 14.4821 24.8784 14.203 24.915 13.9C24.9719 13.4355 25.0002 12.968 25 12.5C24.9983 9.51729 23.9262 6.63421 21.9787 4.37502H23.75Z" fill="white"/>
</svg>
