<svg width="23" height="25" viewBox="0 0 23 25" fill="none" xmlns="http://www.w3.org/2000/svg">
<path d="M11.404 0C11.0328 0 10.6616 0.0831769 10.3741 0.24953L1.1938 5.55987C0.618658 5.89257 0.618658 6.41868 1.1938 6.75139L10.3741 12.0617C10.9492 12.3944 11.8587 12.3944 12.4338 12.0617L21.6141 6.75139C22.1892 6.41874 22.1892 5.89257 21.6141 5.55993L12.4338 0.249591C12.1462 0.0831167 11.7751 0 11.404 0ZM11.3545 3.19185C11.8961 3.19768 12.3832 3.32178 12.8155 3.56398C13.1112 3.72974 13.3049 3.91875 13.3964 4.1312C13.4849 4.34196 13.4902 4.6198 13.412 4.96447L13.3159 5.30739C13.2522 5.55277 13.2389 5.72928 13.2762 5.83686C13.3105 5.94288 13.3954 6.03387 13.5311 6.10995L13.7349 6.22402L11.7375 7.34306L11.5155 7.21883C11.2681 7.08025 11.1102 6.92363 11.0418 6.74886C10.9704 6.57247 10.9823 6.29193 11.0775 5.90718L11.1691 5.56173C11.2224 5.35601 11.2275 5.18731 11.1847 5.05582C11.1455 4.92216 11.0564 4.81644 10.9176 4.73868C10.7064 4.62028 10.4533 4.57785 10.1586 4.61108C9.86072 4.6427 9.55326 4.74739 9.23605 4.9251C8.93724 5.09248 8.66589 5.30204 8.42171 5.55374C8.17459 5.80387 7.96256 6.09006 7.78545 6.41243L6.36411 5.616C6.68371 5.29507 6.99773 5.01441 7.30622 4.77383C7.61477 4.53344 7.9405 4.31708 8.28355 4.12477C9.18359 3.62054 10.0206 3.32064 10.7945 3.22527C10.9802 3.20139 11.1673 3.19021 11.3546 3.19179L11.3545 3.19185ZM14.4049 6.59946L16.0165 7.50238L14.0191 8.62142L12.4075 7.71856L14.4049 6.59946ZM0.580795 7.75732C0.235047 7.748 0 8.01791 0 8.49533V17.9727C0 18.6369 0.454949 19.4249 1.03009 19.757L9.86042 24.8563C10.4356 25.1884 10.8905 24.9258 10.8905 24.2616V14.7841C10.8905 14.1199 10.4356 13.3321 9.86042 12.9999L1.03009 7.90066C0.868429 7.8072 0.716078 7.76081 0.580795 7.7572V7.75732ZM22.2628 7.75744C22.1276 7.76105 21.9754 7.80732 21.8137 7.90078L12.983 13C12.4079 13.3322 11.9529 14.1201 11.9529 14.7843V24.2619C11.9529 24.926 12.4079 25.1885 12.983 24.8563L21.8137 19.7573C22.3889 19.4251 22.8436 18.6373 22.8436 17.973V8.49545C22.8436 8.01815 22.6087 7.7483 22.2628 7.75756V7.75744ZM2.93835 11.5889C3.33218 11.671 3.69187 11.7714 4.01737 11.8901C4.34367 12.0093 4.65897 12.1566 4.95972 12.3304C5.7538 12.7889 6.35918 13.3114 6.77579 13.8979C7.19239 14.4808 7.40069 15.1026 7.40069 15.7633C7.40069 16.1023 7.33729 16.37 7.2103 16.5665C7.08337 16.7595 6.8669 16.9217 6.56099 17.0529L6.24848 17.1683C6.02719 17.255 5.8823 17.3443 5.81396 17.4364C5.74563 17.5248 5.7115 17.6468 5.7115 17.8025V18.036L3.9491 17.0183V16.7641C3.9491 16.4804 4.0027 16.2607 4.11016 16.1048C4.21756 15.9454 4.44383 15.7959 4.7888 15.6561L5.10131 15.5355C5.28684 15.4628 5.42188 15.3713 5.5065 15.261C5.59424 15.1527 5.63824 15.0189 5.63824 14.8598C5.63824 14.6178 5.56011 14.3841 5.40385 14.159C5.24759 13.9304 5.02961 13.7354 4.74967 13.5737C4.48602 13.4215 4.20121 13.3159 3.89525 13.2568C3.58934 13.1943 3.27034 13.1815 2.93835 13.2181V11.5889ZM19.1374 12.1061C19.2289 12.1061 19.3136 12.116 19.3917 12.1358C19.8083 12.2377 20.0166 12.619 20.0166 13.2797C20.0166 13.6186 19.9532 13.9596 19.8263 14.3027C19.6993 14.6423 19.4829 15.0544 19.1769 15.5389L18.8644 16.0151C18.6431 16.3573 18.4982 16.6138 18.4299 16.7848C18.3616 16.9521 18.3274 17.1137 18.3274 17.2693V17.5028L16.5651 18.5204V18.2662C16.5651 17.9825 16.6188 17.7007 16.7261 17.4208C16.8337 17.1374 17.0598 16.7267 17.4047 16.1885L17.7173 15.7071C17.9028 15.4201 18.0378 15.1726 18.1225 14.9647C18.2102 14.7548 18.2542 14.5703 18.2542 14.4112C18.2542 14.1691 18.1761 14.0257 18.0199 13.981C17.8637 13.9329 17.6455 13.9895 17.3656 14.1511C17.102 14.3033 16.8173 14.5267 16.5113 14.8209C16.2054 15.1117 15.8864 15.467 15.5544 15.887V14.2577C15.9483 13.8851 16.3078 13.5702 16.6332 13.3131C16.9588 13.056 17.273 12.8401 17.5756 12.6654C18.2209 12.2928 18.7415 12.1064 19.1375 12.1061L19.1374 12.1061ZM3.94904 17.7864L5.7115 18.8039V20.651L3.9491 19.6336V17.7864L3.94904 17.7864ZM18.3274 18.2708V20.1179L16.5651 21.1354V19.2884L18.3274 18.2708Z" fill="white"/>
</svg>
