<svg width="20" height="25" viewBox="0 0 20 25" fill="none" xmlns="http://www.w3.org/2000/svg">
<path fill-rule="evenodd" clip-rule="evenodd" d="M12.8205 0.320513C12.8205 0.235508 12.7867 0.153984 12.7266 0.0938761C12.6665 0.0337683 12.585 0 12.5 0H3.52564C2.59058 0 1.69382 0.371451 1.03264 1.03264C0.37145 1.69382 0 2.59058 0 3.52564V21.4744C0 22.4094 0.37145 23.3062 1.03264 23.9674C1.69382 24.6286 2.59058 25 3.52564 25H16.3462C17.2812 25 18.178 24.6286 18.8392 23.9674C19.5003 23.3062 19.8718 22.4094 19.8718 21.4744V8.84231C19.8718 8.7573 19.838 8.67578 19.7779 8.61567C19.7178 8.55556 19.6363 8.5218 19.5513 8.5218H13.7821C13.527 8.5218 13.2825 8.42049 13.1021 8.24017C12.9218 8.05984 12.8205 7.81527 12.8205 7.56026V0.320513ZM13.7821 12.8205C14.0371 12.8205 14.2816 12.9218 14.462 13.1021C14.6423 13.2825 14.7436 13.527 14.7436 13.7821C14.7436 14.0371 14.6423 14.2816 14.462 14.462C14.2816 14.6423 14.0371 14.7436 13.7821 14.7436H6.08974C5.83473 14.7436 5.59016 14.6423 5.40983 14.462C5.22951 14.2816 5.12821 14.0371 5.12821 13.7821C5.12821 13.527 5.22951 13.2825 5.40983 13.1021C5.59016 12.9218 5.83473 12.8205 6.08974 12.8205H13.7821ZM13.7821 17.9487C14.0371 17.9487 14.2816 18.05 14.462 18.2303C14.6423 18.4107 14.7436 18.6552 14.7436 18.9103C14.7436 19.1653 14.6423 19.4098 14.462 19.5902C14.2816 19.7705 14.0371 19.8718 13.7821 19.8718H6.08974C5.83473 19.8718 5.59016 19.7705 5.40983 19.5902C5.22951 19.4098 5.12821 19.1653 5.12821 18.9103C5.12821 18.6552 5.22951 18.4107 5.40983 18.2303C5.59016 18.05 5.83473 17.9487 6.08974 17.9487H13.7821Z" fill="white"/>
<path d="M14.7436 0.735979C14.7436 0.500082 14.991 0.350082 15.1744 0.497518C15.3295 0.623159 15.4692 0.769313 15.5885 0.93598L19.4513 6.31675C19.5385 6.43983 19.4436 6.5988 19.2923 6.5988H15.0641C14.9791 6.5988 14.8976 6.56503 14.8375 6.50492C14.7774 6.44482 14.7436 6.36329 14.7436 6.27829V0.735979Z" fill="white"/>
</svg>
