<svg width="69" height="32" viewBox="0 0 69 32" fill="none" xmlns="http://www.w3.org/2000/svg">
<rect x="37" width="32" height="32" rx="10" fill="#01B580" fill-opacity="0.6"/>
<path d="M58.1181 19.4511C58.356 19.4512 58.5847 19.5443 58.7569 19.7111C58.9291 19.8779 59.0315 20.1056 59.0429 20.347C59.0543 20.5884 58.9739 20.8251 58.8183 21.0079C58.6627 21.1907 58.4438 21.3057 58.207 21.329L58.1181 21.3334H48.2374C47.9995 21.3333 47.7708 21.2402 47.5986 21.0734C47.4265 20.9066 47.3241 20.6789 47.3126 20.4375C47.3012 20.196 47.3816 19.9594 47.5372 19.7766C47.6928 19.5938 47.9117 19.4788 48.1485 19.4555L48.2374 19.4511H58.1181ZM58.1181 15.0589C58.3638 15.0589 58.5994 15.1581 58.7731 15.3346C58.9468 15.5111 59.0444 15.7505 59.0444 16.0001C59.0444 16.2497 58.9468 16.4891 58.7731 16.6656C58.5994 16.8421 58.3638 16.9413 58.1181 16.9413H48.2374C47.9917 16.9413 47.7561 16.8421 47.5824 16.6656C47.4087 16.4891 47.3111 16.2497 47.3111 16.0001C47.3111 15.7505 47.4087 15.5111 47.5824 15.3346C47.7561 15.1581 47.9917 15.0589 48.2374 15.0589H58.1181ZM58.1181 10.6667C58.3638 10.6667 58.5994 10.7659 58.7731 10.9424C58.9468 11.1189 59.0444 11.3583 59.0444 11.6079C59.0444 11.8575 58.9468 12.0969 58.7731 12.2734C58.5994 12.4499 58.3638 12.5491 58.1181 12.5491H48.2374C47.9917 12.5491 47.7561 12.4499 47.5824 12.2734C47.4087 12.0969 47.3111 11.8575 47.3111 11.6079C47.3111 11.3583 47.4087 11.1189 47.5824 10.9424C47.7561 10.7659 47.9917 10.6667 48.2374 10.6667H58.1181Z" fill="#148B35"/>
<rect width="32" height="32" rx="10" fill="#01B580" fill-opacity="0.6"/>
<path d="M16 8.53345C11.8762 8.53345 8.53333 11.8763 8.53333 16.0001C8.53333 20.124 11.8762 23.4668 16 23.4668C20.1238 23.4668 23.4667 20.124 23.4667 16.0001C23.4667 11.8763 20.1238 8.53345 16 8.53345ZM19.7333 16.7468H16.7467V19.7334H15.2533V16.7468H12.2667V15.2534H15.2533V12.2668H16.7467V15.2534H19.7333V16.7468Z" fill="#148B35"/>
</svg>
