<svg width="20" height="20" viewBox="0 0 20 20" fill="none" xmlns="http://www.w3.org/2000/svg">
<path d="M7.89474 3.25V3.5H12.1053V3.25C12.1053 2.71957 11.8835 2.21086 11.4886 1.83579C11.0938 1.46071 10.5584 1.25 10 1.25C9.44165 1.25 8.90617 1.46071 8.51135 1.83579C8.11654 2.21086 7.89474 2.71957 7.89474 3.25ZM6.57895 3.5V3.25C6.57895 2.38805 6.93938 1.5614 7.58095 0.951903C8.22252 0.34241 9.09268 0 10 0C10.9073 0 11.7775 0.34241 12.419 0.951903C13.0606 1.5614 13.4211 2.38805 13.4211 3.25V3.5H19.3421C19.5166 3.5 19.6839 3.56585 19.8073 3.68306C19.9307 3.80027 20 3.95924 20 4.125C20 4.29076 19.9307 4.44973 19.8073 4.56694C19.6839 4.68415 19.5166 4.75 19.3421 4.75H17.8068L16.7542 16.678C16.6742 17.5838 16.239 18.428 15.5346 19.0433C14.8303 19.6586 13.9084 20 12.9516 20H7.04842C6.09168 19.9999 5.16988 19.6584 4.46568 19.0431C3.76149 18.4279 3.32629 17.5837 3.24632 16.678L2.19368 4.75H0.657895C0.48341 4.75 0.316072 4.68415 0.192693 4.56694C0.0693137 4.44973 0 4.29076 0 4.125C0 3.95924 0.0693137 3.80027 0.192693 3.68306C0.316072 3.56585 0.48341 3.5 0.657895 3.5H6.57895ZM8.68421 8.125C8.68421 8.04292 8.66719 7.96165 8.63413 7.88582C8.60107 7.80999 8.55261 7.74109 8.49152 7.68306C8.43043 7.62502 8.3579 7.57898 8.27808 7.54757C8.19826 7.51617 8.11271 7.5 8.02632 7.5C7.93992 7.5 7.85437 7.51617 7.77455 7.54757C7.69473 7.57898 7.6222 7.62502 7.56111 7.68306C7.50002 7.74109 7.45156 7.80999 7.4185 7.88582C7.38544 7.96165 7.36842 8.04292 7.36842 8.125V15.375C7.36842 15.4571 7.38544 15.5383 7.4185 15.6142C7.45156 15.69 7.50002 15.7589 7.56111 15.8169C7.6222 15.875 7.69473 15.921 7.77455 15.9524C7.85437 15.9838 7.93992 16 8.02632 16C8.11271 16 8.19826 15.9838 8.27808 15.9524C8.3579 15.921 8.43043 15.875 8.49152 15.8169C8.55261 15.7589 8.60107 15.69 8.63413 15.6142C8.66719 15.5383 8.68421 15.4571 8.68421 15.375V8.125ZM11.9737 7.5C11.6105 7.5 11.3158 7.78 11.3158 8.125V15.375C11.3158 15.5408 11.3851 15.6997 11.5085 15.8169C11.6319 15.9342 11.7992 16 11.9737 16C12.1482 16 12.3155 15.9342 12.4389 15.8169C12.5623 15.6997 12.6316 15.5408 12.6316 15.375V8.125C12.6316 7.78 12.3368 7.5 11.9737 7.5Z" fill="#FF2020"/>
</svg>
