<svg width="10" height="10" viewBox="0 0 10 10" fill="none" xmlns="http://www.w3.org/2000/svg">
<path d="M8.75 3.75H6.25V1.25C6.25 0.918479 6.1183 0.600537 5.88388 0.366116C5.64946 0.131696 5.33152 0 5 0C4.66848 0 4.35054 0.131696 4.11612 0.366116C3.8817 0.600537 3.75 0.918479 3.75 1.25L3.79437 3.75H1.25C0.918479 3.75 0.600537 3.8817 0.366116 4.11612C0.131696 4.35054 0 4.66848 0 5C0 5.33152 0.131696 5.64946 0.366116 5.88388C0.600537 6.1183 0.918479 6.25 1.25 6.25L3.79437 6.20563L3.75 8.75C3.75 9.08152 3.8817 9.39946 4.11612 9.63388C4.35054 9.8683 4.66848 10 5 10C5.33152 10 5.64946 9.8683 5.88388 9.63388C6.1183 9.39946 6.25 9.08152 6.25 8.75V6.20563L8.75 6.25C9.08152 6.25 9.39946 6.1183 9.63388 5.88388C9.8683 5.64946 10 5.33152 10 5C10 4.66848 9.8683 4.35054 9.63388 4.11612C9.39946 3.8817 9.08152 3.75 8.75 3.75Z" fill="#00835D"/>
</svg>
