<svg width="25" height="25" viewBox="0 0 25 25" fill="none" xmlns="http://www.w3.org/2000/svg">
<path d="M9.72222 13.8889H1.38889C1.02053 13.8889 0.667263 14.0352 0.406796 14.2957C0.146329 14.5562 0 14.9094 0 15.2778V23.6111C0 23.9795 0.146329 24.3327 0.406796 24.5932C0.667263 24.8537 1.02053 25 1.38889 25H9.72222C10.0906 25 10.4438 24.8537 10.7043 24.5932C10.9648 24.3327 11.1111 23.9795 11.1111 23.6111V15.2778C11.1111 14.9094 10.9648 14.5562 10.7043 14.2957C10.4438 14.0352 10.0906 13.8889 9.72222 13.8889ZM8.33333 22.2222H2.77778V16.6667H8.33333V22.2222ZM23.6111 0H15.2778C14.9094 0 14.5562 0.146329 14.2957 0.406796C14.0352 0.667263 13.8889 1.02053 13.8889 1.38889V9.72222C13.8889 10.0906 14.0352 10.4438 14.2957 10.7043C14.5562 10.9648 14.9094 11.1111 15.2778 11.1111H23.6111C23.9795 11.1111 24.3327 10.9648 24.5932 10.7043C24.8537 10.4438 25 10.0906 25 9.72222V1.38889C25 1.02053 24.8537 0.667263 24.5932 0.406796C24.3327 0.146329 23.9795 0 23.6111 0ZM22.2222 8.33333H16.6667V2.77778H22.2222V8.33333ZM23.6111 18.0556H20.8333V15.2778C20.8333 14.9094 20.687 14.5562 20.4265 14.2957C20.1661 14.0352 19.8128 13.8889 19.4444 13.8889C19.0761 13.8889 18.7228 14.0352 18.4624 14.2957C18.2019 14.5562 18.0556 14.9094 18.0556 15.2778V18.0556H15.2778C14.9094 18.0556 14.5562 18.2019 14.2957 18.4624C14.0352 18.7228 13.8889 19.0761 13.8889 19.4444C13.8889 19.8128 14.0352 20.1661 14.2957 20.4265C14.5562 20.687 14.9094 20.8333 15.2778 20.8333H18.0556V23.6111C18.0556 23.9795 18.2019 24.3327 18.4624 24.5932C18.7228 24.8537 19.0761 25 19.4444 25C19.8128 25 20.1661 24.8537 20.4265 24.5932C20.687 24.3327 20.8333 23.9795 20.8333 23.6111V20.8333H23.6111C23.9795 20.8333 24.3327 20.687 24.5932 20.4265C24.8537 20.1661 25 19.8128 25 19.4444C25 19.0761 24.8537 18.7228 24.5932 18.4624C24.3327 18.2019 23.9795 18.0556 23.6111 18.0556ZM9.72222 0H1.38889C1.02053 0 0.667263 0.146329 0.406796 0.406796C0.146329 0.667263 0 1.02053 0 1.38889V9.72222C0 10.0906 0.146329 10.4438 0.406796 10.7043C0.667263 10.9648 1.02053 11.1111 1.38889 11.1111H9.72222C10.0906 11.1111 10.4438 10.9648 10.7043 10.7043C10.9648 10.4438 11.1111 10.0906 11.1111 9.72222V1.38889C11.1111 1.02053 10.9648 0.667263 10.7043 0.406796C10.4438 0.146329 10.0906 0 9.72222 0ZM8.33333 8.33333H2.77778V2.77778H8.33333V8.33333Z" fill="white"/>
</svg>
