<svg width="22" height="22" viewBox="0 0 22 22" fill="none" xmlns="http://www.w3.org/2000/svg">
<path d="M21.8968 5.53447C21.8968 5.53447 19.8 1.40947 19.25 1.1001C18.7 0.790722 15.6406 0.859472 14.5062 0.412598C14.5062 0.412598 13.0968 2.0626 11 2.0626C8.90309 2.0626 7.49372 0.412598 7.49372 0.412598C6.32497 0.859472 3.29997 0.790722 2.74997 1.1001C2.19997 1.40947 0.0687256 5.53447 0.0687256 5.53447C1.23747 8.18134 3.98747 8.76571 3.98747 8.76571L5.08747 7.04696L4.57185 20.3501C7.21872 21.8969 9.14371 22.0001 11 22.0001C12.8562 22.0001 14.7468 21.8969 17.3937 20.3844L16.8781 7.08134L17.9781 8.80009C17.9781 8.76571 20.7625 8.21571 21.8968 5.53447Z" fill="#3A3A3A"/>
<path d="M11.0687 2.475C10.5187 2.475 10.0031 2.37187 9.45311 2.16562C9.04061 1.99375 8.59374 1.7875 8.18124 1.5125C7.49374 1.06562 7.04687 0.584374 7.04687 0.584374L7.69999 0.0687499C7.69999 0.0687499 8.07811 0.481249 8.69686 0.893749C9.24686 1.2375 10.1062 1.68437 11.0687 1.68437C12.1687 1.68437 13.2344 1.1 14.2312 0L14.8844 0.515624C14.2656 1.20312 13.6469 1.71875 12.9594 2.02812C12.375 2.30312 11.7562 2.475 11.0687 2.475ZM4.46874 8.04374C3.26562 7.94061 2.23437 7.35624 1.40937 6.29062C0.928124 5.67187 0.618749 5.05312 0.481249 4.70937L0 5.67187C0.171875 6.01562 0.412499 6.39374 0.721874 6.77187C1.20312 7.39061 1.75312 7.87186 2.3375 8.21561C2.85312 8.52499 3.40312 8.73124 4.02187 8.79999L4.46874 8.04374ZM17.5312 8.07811C18.7344 7.97499 19.7656 7.39061 20.5906 6.32499C21.0718 5.70624 21.3812 5.08749 21.5187 4.74374L22 5.67187C21.8281 6.01562 21.5875 6.39374 21.2781 6.77187C20.7968 7.39061 20.2468 7.87186 19.6625 8.21561C19.1469 8.52499 18.5625 8.73124 17.9781 8.79999L17.5312 8.07811Z" fill="black"/>
</svg>
